<?xml version="1.0" standalone="no"?>
<!DOCTYPE svg PUBLIC "-//W3C//DTD SVG 20010904//EN"
 "http://www.w3.org/TR/2001/REC-SVG-20010904/DTD/svg10.dtd">
<svg version="1.0" xmlns="http://www.w3.org/2000/svg"
 width="1280.000000pt" height="718.000000pt" viewBox="0 0 1280.000000 718.000000"
 preserveAspectRatio="xMidYMid meet">

<g transform="translate(0.000000,718.000000) scale(0.100000,-0.100000)"
fill="#000000" stroke="none">
<path d="M2870 7061 c0 -19 187 -216 274 -290 77 -64 176 -169 176 -185 0 -10
95 -131 141 -179 21 -23 43 -53 48 -68 11 -32 -3 -41 -114 -73 -86 -26 -94
-47 -20 -59 135 -20 164 -27 215 -46 87 -33 130 -79 130 -140 l0 -31 -87 0
c-98 0 -167 15 -398 85 -266 81 -288 86 -297 77 -6 -6 2 -23 20 -43 16 -19 34
-44 41 -56 11 -22 10 -23 -37 -23 -27 0 -91 6 -143 14 -151 24 -410 66 -464
76 -189 35 -387 60 -800 101 -60 6 -212 12 -336 14 -207 2 -268 -2 -242 -18
11 -7 369 -110 543 -156 63 -17 187 -56 275 -87 88 -30 203 -71 255 -89 149
-51 222 -81 259 -103 l33 -20 -53 -15 c-82 -24 -219 -37 -374 -37 -123 0 -351
-15 -555 -38 -36 -4 -64 -11 -63 -17 1 -5 46 -18 100 -27 54 -9 136 -25 183
-36 47 -11 142 -30 213 -42 131 -22 197 -42 197 -61 0 -11 -17 -29 -120 -125
-63 -58 -143 -145 -180 -194 -48 -63 -115 -133 -158 -162 -23 -16 -125 -66
-225 -111 -100 -45 -188 -86 -195 -90 -20 -13 -3 -27 33 -27 48 0 129 -19 151
-34 17 -13 15 -19 -30 -112 -26 -55 -56 -117 -66 -139 -10 -22 -44 -94 -75
-160 -32 -66 -68 -145 -82 -175 -13 -30 -33 -73 -43 -95 -62 -136 -79 -218
-111 -520 -23 -222 6 -592 65 -818 41 -156 105 -343 146 -427 81 -163 100
-200 120 -235 12 -22 31 -52 41 -67 11 -14 19 -30 19 -35 0 -6 9 -18 20 -28
11 -10 20 -22 20 -27 0 -6 112 -160 130 -178 3 -3 30 -34 60 -70 275 -326 628
-582 1011 -733 292 -116 496 -166 779 -192 432 -41 817 11 1230 166 264 100
581 288 779 464 168 149 229 211 334 340 324 398 481 504 772 522 188 11 313
-29 504 -161 305 -211 657 -310 1031 -291 306 15 589 108 834 273 100 67 210
169 389 362 97 104 149 147 223 186 106 54 247 69 367 38 33 -8 110 -44 171
-79 212 -121 360 -159 606 -153 142 4 163 7 247 36 181 61 292 125 406 232
126 117 211 254 263 421 24 76 27 100 27 244 0 143 -3 169 -26 240 -78 251
-254 459 -490 581 -76 39 -134 57 -420 129 -183 46 -411 104 -507 130 -271 72
-486 128 -850 221 -184 47 -406 106 -493 130 -201 57 -237 54 -105 -8 242
-115 427 -277 631 -551 167 -225 265 -313 411 -371 112 -45 197 -59 321 -53
127 6 189 21 320 77 87 37 101 40 186 40 178 0 341 -73 457 -205 61 -69 92
-128 118 -224 29 -105 30 -182 4 -275 -31 -106 -58 -153 -134 -234 -136 -143
-307 -201 -511 -173 -102 14 -174 49 -290 142 -88 70 -255 160 -380 204 -77
27 -361 26 -470 -2 -115 -30 -179 -56 -272 -110 -116 -68 -192 -130 -270 -223
-326 -387 -896 -475 -1343 -207 -47 28 -119 74 -160 102 -215 145 -400 226
-669 292 l-143 35 -272 -4 c-265 -4 -274 -5 -394 -36 -155 -40 -358 -119 -478
-188 -127 -71 -283 -195 -375 -295 -182 -199 -268 -281 -379 -360 -331 -234
-686 -334 -1076 -301 -309 26 -565 120 -815 299 -118 84 -302 269 -385 388
-40 57 -144 249 -144 266 0 5 -11 32 -24 61 -30 67 -56 168 -56 219 0 118 47
290 133 489 8 19 27 67 42 105 15 39 36 89 46 112 10 24 19 45 19 49 0 9 57
64 165 159 55 49 134 119 175 155 80 71 294 259 400 350 253 218 290 254 322
308 18 31 35 62 37 67 8 21 66 101 86 118 25 22 137 97 188 126 39 22 64 25
116 15 25 -5 31 -11 31 -33 0 -25 -54 -150 -70 -161 -16 -11 -59 -110 -48
-110 7 0 37 20 69 45 l57 45 6 -68 c6 -63 3 -94 -36 -355 -10 -70 -8 -84 12
-72 12 7 70 119 70 135 0 42 164 300 190 300 5 0 23 12 40 26 17 15 32 25 33
23 27 -38 37 -65 37 -96 0 -26 18 -73 57 -153 67 -133 134 -208 228 -255 59
-29 64 -30 233 -33 157 -3 180 -1 270 22 114 29 300 50 410 44 89 -4 114 -15
272 -120 79 -52 117 -84 148 -127 42 -58 137 -157 165 -173 32 -17 149 -27
178 -15 16 7 65 59 112 119 115 145 121 185 47 304 -21 33 -45 82 -55 110 -25
74 -41 94 -103 121 -32 13 -93 42 -137 64 -44 22 -116 53 -160 69 -112 42
-233 120 -240 157 -27 130 -63 161 -205 178 -63 7 -132 47 -181 103 -17 21
-50 57 -73 82 -23 25 -67 77 -98 115 -31 39 -88 98 -127 133 -39 35 -74 75
-77 88 -8 32 29 81 93 123 l48 32 121 -3 c120 -3 121 -3 181 -40 101 -63 119
-48 51 42 -71 94 -117 137 -181 168 -128 62 -265 69 -462 22 -196 -47 -181
-51 -316 88 -63 64 -147 146 -188 182 -40 36 -90 80 -110 99 -36 33 -230 187
-415 328 -172 132 -274 193 -485 290 -215 99 -251 113 -251 94z m1654 -1582
c52 -13 203 -91 263 -137 105 -78 224 -185 238 -212 14 -26 13 -28 -8 -35 -12
-3 -72 -9 -132 -12 l-110 -6 -37 44 c-19 24 -49 58 -64 74 -89 94 -212 234
-227 258 -21 33 -13 51 17 42 11 -3 39 -11 60 -16z"/>
</g>
</svg>
